<svg width="38" height="48" viewBox="0 0 38 48" fill="none" xmlns="http://www.w3.org/2000/svg">
<path d="M24.5584 11.3411C26.2113 9.83141 27.25 7.65979 27.25 5.25004V1.50004C27.25 1.01788 27.0183 0.565071 26.627 0.283164C26.2359 0.0012582 25.7331 -0.0754293 25.2756 0.0770082L22.5279 0.992946C20.2528 1.75129 17.747 1.75129 15.472 0.992946L12.7243 0.0770082C12.2671 -0.075523 11.764 0.0012582 11.3729 0.283164C10.9817 0.565071 10.75 1.01788 10.75 1.50004V5.25004C10.75 7.65979 11.7887 9.83141 13.4416 11.3411C5.80816 13.7153 0.25 20.8457 0.25 29.25V41.8125C0.25 45.2244 3.02566 48 6.4375 48H31.5625C34.9743 48 37.75 45.2244 37.75 41.8125V29.25C37.75 20.8457 32.1918 13.7153 24.5584 11.3411ZM13.75 5.25004V3.5812L14.5234 3.83901C17.4102 4.80126 20.5898 4.80135 23.4767 3.83901L24.2501 3.5812V5.25004C24.2501 8.14485 21.8949 10.5 19.0001 10.5C16.1053 10.5 13.75 8.14495 13.75 5.25004ZM34.75 41.8125C34.75 43.5702 33.3201 45 31.5625 45H6.4375C4.67987 45 3.25 43.5702 3.25 41.8125V29.25C3.25 20.5654 10.3154 13.5 19 13.5C27.6846 13.5 34.75 20.5654 34.75 29.25V41.8125Z" fill="#FF5A30"/>
</svg>
